<svg width="20" height="14" viewBox="0 0 20 14" fill="none" xmlns="http://www.w3.org/2000/svg">
<path d="M19.9894 1.63672C20.009 1.5156 19.9921 1.39136 19.9409 1.27986C19.7834 0.587656 19.2831 0.230469 18.4375 0.230469H2.1875C1.44375 0.230469 0.64248 0.503906 0.248438 1.04047C0.214355 1.06641 0.181855 1.09578 0.1525 1.12984C0.026543 1.27516 -0.0175195 1.46205 0.010625 1.6383C0.005 1.68893 0 1.73986 0 1.79299V11.793C0 12.8286 1.15219 13.9805 2.1875 13.9805H18.4375C19.4731 13.9805 20 12.8286 20 11.793V1.79299C20 1.73768 19.9928 1.68922 19.9894 1.63672ZM2.18742 1.48047L18.4374 1.48045H18.4459L9.99994 8.21201L1.58807 1.50795C1.77932 1.47264 2.01465 1.48047 2.18742 1.48047ZM18.4374 12.7304H2.18746C1.84277 12.7304 1.24996 12.1379 1.24996 11.7929V2.83889L9.59059 9.5117C9.70809 9.61326 9.854 9.66389 9.99994 9.66389C10.1504 9.66403 10.2958 9.61001 10.4096 9.5117L18.7499 2.8392V11.7929C18.7499 12.1379 18.7824 12.7304 18.4374 12.7304Z" fill="white"/>
</svg>
